<svg width="268" height="270" viewBox="0 0 268 270" fill="none" xmlns="http://www.w3.org/2000/svg">
<path d="M266.524 44.215V230.486C266.524 251.391 249.569 268.337 228.665 268.337H39.4106C18.5061 268.337 1.55984 251.391 1.55984 230.486V44.215H266.524ZM218.09 155.085C218.09 110.789 182.182 74.8809 137.886 74.8809C93.59 74.8809 57.6899 110.789 57.6899 155.085C57.6899 199.381 93.5982 235.281 137.886 235.281C182.174 235.281 218.09 199.381 218.09 155.085Z" fill="#C8C2AD"/>
<path d="M220.61 31.934C225.328 31.934 229.152 28.1095 229.152 23.3917C229.152 18.674 225.328 14.8495 220.61 14.8495C215.892 14.8495 212.068 18.674 212.068 23.3917C212.068 28.1095 215.892 31.934 220.61 31.934Z" fill="#2B4141"/>
<path d="M153.703 23.3919C153.703 28.106 157.523 31.9341 162.245 31.9341C166.967 31.9341 170.779 28.106 170.779 23.3919C170.779 18.6778 166.959 14.8496 162.245 14.8496C157.531 14.8496 153.703 18.6778 153.703 23.3919ZM199.966 23.3919C199.966 18.6778 196.146 14.8496 191.423 14.8496C186.701 14.8496 182.889 18.6778 182.889 23.3919C182.889 28.106 186.709 31.9341 191.423 31.9341C196.137 31.9341 199.966 28.106 199.966 23.3919ZM212.068 23.3919C212.068 28.106 215.896 31.9341 220.61 31.9341C225.324 31.9341 229.152 28.106 229.152 23.3919C229.152 18.6778 225.324 14.8496 220.61 14.8496C215.896 14.8496 212.068 18.6778 212.068 23.3919ZM266.524 38.8589V44.2151H1.55984V38.8589C1.55984 17.9463 18.5061 1 39.4106 1H228.665C249.569 1 266.524 17.9463 266.524 38.8589Z" fill="#8AB9B5"/>
<path d="M191.423 31.934C186.709 31.934 182.889 28.1058 182.889 23.3917C182.889 18.6776 186.709 14.8495 191.423 14.8495C196.137 14.8495 199.966 18.6776 199.966 23.3917C199.966 28.1058 196.146 31.934 191.423 31.934Z" fill="#2B4141"/>
<path d="M137.886 74.8807C182.182 74.8807 218.091 110.789 218.091 155.085C218.091 199.381 182.182 235.281 137.886 235.281C93.5901 235.281 57.6899 199.381 57.6899 155.085C57.6899 110.789 93.5982 74.8807 137.886 74.8807ZM185.929 187.58C192.212 178.314 195.886 167.122 195.886 155.085C195.886 123.054 169.918 97.0856 137.886 97.0856C105.855 97.0856 79.8949 123.054 79.8949 155.085C79.8949 181.362 97.3695 203.559 121.33 210.671C126.572 212.239 132.132 213.076 137.886 213.076C157.872 213.076 175.501 202.965 185.929 187.58Z" fill="#8AB9B5"/>
<path d="M174.29 164.457C173.331 162.612 172.331 160.718 171.291 158.816C170.243 156.89 169.17 154.955 168.089 153.037C159.929 138.562 151.346 124.997 150.956 124.997C150.224 125.143 149.029 145.82 148.444 146.698C147.859 147.567 133.294 150.453 132.416 149.876C131.547 149.29 122.11 132.23 120.647 132.523C119.924 132.669 118.339 149.705 118.136 166.594C118.128 167.521 118.12 168.447 118.12 169.366C118.111 172.739 118.258 176.51 118.51 180.363C119.404 194.578 121.582 209.817 121.582 209.817L121.33 210.671C97.3695 203.559 79.8949 181.362 79.8949 155.085C79.8949 123.054 105.855 97.086 137.886 97.086C169.918 97.086 195.886 123.054 195.886 155.085C195.886 167.123 192.212 178.314 185.929 187.58L185.23 187.092C185.23 187.092 180.679 176.713 174.29 164.457Z" fill="#36B1D2"/>
<path d="M174.29 164.457C180.679 176.713 185.23 187.092 185.23 187.092L185.929 187.58C175.501 202.966 157.872 213.077 137.886 213.077C132.132 213.077 126.572 212.239 121.33 210.671L121.582 209.817C121.582 209.817 119.404 194.578 118.51 180.362C118.258 176.51 118.111 172.739 118.12 169.366C118.12 168.447 118.128 167.521 118.136 166.594C118.339 149.705 119.924 132.669 120.647 132.523C122.11 132.23 131.547 149.29 132.416 149.875C133.294 150.452 147.859 147.567 148.444 146.697C149.029 145.82 150.224 125.143 150.956 124.996C151.346 124.996 159.929 138.562 168.089 153.037C169.17 154.955 170.243 156.89 171.291 158.816C172.331 160.718 173.331 162.612 174.29 164.457ZM154.499 165.481C154.499 163.026 152.508 161.027 150.045 161.027C147.583 161.027 145.591 163.026 145.591 165.481C145.591 167.935 147.583 169.943 150.045 169.943C152.508 169.943 154.499 167.943 154.499 165.481ZM142.616 168.455C142.616 165.993 140.625 164.001 138.162 164.001C135.7 164.001 133.708 165.993 133.708 168.455C133.708 170.918 135.708 172.909 138.162 172.909C140.617 172.909 142.616 170.918 142.616 168.455Z" fill="#F85D25"/>
<path d="M162.245 14.8495C166.959 14.8495 170.779 18.6776 170.779 23.3917C170.779 28.1058 166.959 31.934 162.245 31.934C157.531 31.934 153.703 28.1058 153.703 23.3917C153.703 18.6776 157.523 14.8495 162.245 14.8495Z" fill="#2B4141"/>
<path d="M150.045 161.026C152.508 161.026 154.499 163.026 154.499 165.48C154.499 167.935 152.508 169.942 150.045 169.942C147.582 169.942 145.591 167.943 145.591 165.48C145.591 163.018 147.582 161.026 150.045 161.026Z" fill="black"/>
<path d="M138.162 172.909C140.622 172.909 142.616 170.915 142.616 168.455C142.616 165.996 140.622 164.001 138.162 164.001C135.703 164.001 133.708 165.996 133.708 168.455C133.708 170.915 135.703 172.909 138.162 172.909Z" fill="black"/>
<path d="M218.09 155.085C218.09 199.381 182.182 235.281 137.886 235.281C93.5899 235.281 57.6898 199.381 57.6898 155.085C57.6898 110.789 93.598 74.8807 137.886 74.8807C182.174 74.8807 218.09 110.789 218.09 155.085Z" stroke="black" stroke-width="1.75056" stroke-miterlimit="10"/>
<path d="M266.523 44.2151V230.486C266.523 251.391 249.569 268.337 228.664 268.337H39.4105C18.506 268.337 1.55969 251.391 1.55969 230.486V38.8589C1.55969 17.9463 18.506 1 39.4105 1H228.664C249.569 1 266.523 17.9463 266.523 38.8589V44.2151Z" stroke="black" stroke-width="1.75056" stroke-miterlimit="10"/>
<path d="M1 44.3418L3.22735 44.3418L264.42 44.3418L267 44.3418" stroke="black" stroke-width="1.75056" stroke-miterlimit="10"/>
<path d="M121.33 210.671C97.3693 203.559 79.8947 181.362 79.8947 155.085C79.8947 123.054 105.855 97.0859 137.886 97.0859C169.917 97.0859 195.885 123.054 195.885 155.085C195.885 167.123 192.212 178.314 185.929 187.58C175.501 202.966 157.872 213.077 137.886 213.077C132.132 213.077 126.572 212.239 121.33 210.671Z" stroke="black" stroke-width="1.75056" stroke-miterlimit="10"/>
<path d="M121.582 209.817C121.582 209.817 119.404 194.578 118.51 180.362C118.258 176.51 118.111 172.738 118.12 169.365C118.12 168.447 118.128 167.52 118.136 166.594C118.339 149.704 119.924 132.669 120.647 132.522C122.11 132.23 131.547 149.29 132.416 149.875C133.294 150.452 147.859 147.567 148.444 146.697C149.029 145.819 150.224 125.143 150.956 124.996C151.346 124.996 159.929 138.561 168.089 153.037C169.17 154.955 170.243 156.889 171.291 158.816C172.331 160.718 173.331 162.611 174.29 164.456C180.679 176.713 185.23 187.092 185.23 187.092" stroke="black" stroke-width="1.75056" stroke-miterlimit="10"/>
<path d="M100.051 163.546L118.136 166.594L126.548 168.008" stroke="black" stroke-width="1.75056" stroke-miterlimit="10" stroke-linecap="round"/>
<path d="M103.928 182.874L118.51 180.362L127.401 178.826" stroke="black" stroke-width="1.75056" stroke-miterlimit="10" stroke-linecap="round"/>
<path d="M161.31 158.946L168.089 153.037L178.768 143.723" stroke="black" stroke-width="1.75056" stroke-miterlimit="10" stroke-linecap="round"/>
<path d="M164.374 168.512L174.29 164.456L185.726 159.775" stroke="black" stroke-width="1.75056" stroke-miterlimit="10" stroke-linecap="round"/>
<path d="M170.779 23.3916C170.779 28.1057 166.959 31.9339 162.245 31.9339C157.531 31.9339 153.703 28.1057 153.703 23.3916C153.703 18.6776 157.523 14.8494 162.245 14.8494C166.967 14.8494 170.779 18.6776 170.779 23.3916Z" stroke="black" stroke-width="1.16704" stroke-miterlimit="10"/>
<path d="M199.965 23.3916C199.965 28.1057 196.145 31.9339 191.423 31.9339C186.701 31.9339 182.889 28.1057 182.889 23.3916C182.889 18.6776 186.709 14.8494 191.423 14.8494C196.137 14.8494 199.965 18.6776 199.965 23.3916Z" stroke="black" stroke-width="1.16704" stroke-miterlimit="10"/>
<path d="M220.61 31.9339C225.328 31.9339 229.152 28.1094 229.152 23.3916C229.152 18.6739 225.328 14.8494 220.61 14.8494C215.892 14.8494 212.068 18.6739 212.068 23.3916C212.068 28.1094 215.892 31.9339 220.61 31.9339Z" stroke="black" stroke-width="1.16704" stroke-miterlimit="10"/>
</svg>
